<?xml version="1.0" standalone="no"?>
<!DOCTYPE svg PUBLIC "-//W3C//DTD SVG 20010904//EN"
 "http://www.w3.org/TR/2001/REC-SVG-20010904/DTD/svg10.dtd">
<svg version="1.0" xmlns="http://www.w3.org/2000/svg"
 width="700.000000pt" height="700.000000pt" viewBox="0 0 700.000000 700.000000"
 preserveAspectRatio="xMidYMid meet">
<metadata>
Created by potrace 1.14, written by Peter Selinger 2001-2017
</metadata>
<g transform="translate(0.000000,700.000000) scale(0.100000,-0.100000)"
fill="#000000" stroke="none">
<path d="M0 6765 l0 -235 1029 0 c994 0 1031 -1 1092 -20 155 -47 268 -163
311 -319 16 -60 18 -113 18 -606 l0 -541 -68 -49 c-98 -71 -327 -305 -405
-415 -88 -124 -205 -357 -250 -501 -122 -382 -122 -776 0 -1159 45 -142 161
-374 251 -500 79 -112 308 -346 404 -414 l68 -48 0 -536 c0 -444 -3 -548 -15
-601 -38 -158 -155 -282 -314 -331 -61 -19 -98 -20 -1092 -20 l-1029 0 0 -235
0 -236 1068 3 1067 3 80 23 c381 107 647 412 694 797 6 52 11 262 11 493 0
221 4 402 8 402 5 0 31 -7 58 -14 329 -97 738 -92 1072 13 l93 29 35 -72 c99
-198 283 -364 494 -445 162 -63 127 -61 1275 -61 l1045 0 0 230 0 229 -1037 3
-1038 3 -63 24 c-112 41 -209 127 -262 231 -37 74 -38 71 57 147 99 80 255
237 326 330 370 484 478 1122 290 1713 -45 143 -162 375 -251 499 -83 117
-260 303 -370 388 -92 73 -91 68 -43 158 61 118 196 212 331 234 42 7 413 11
1063 11 l997 0 0 230 0 230 -1045 0 c-1148 0 -1113 2 -1275 -61 -211 -81 -395
-247 -494 -445 l-35 -72 -93 29 c-213 67 -472 96 -691 79 -130 -11 -284 -37
-381 -66 -27 -7 -53 -14 -58 -14 -4 0 -8 181 -8 403 0 230 -5 440 -11 492 -47
385 -313 690 -694 797 l-80 23 -1067 3 -1068 3 0 -236z m3800 -1899 c274 -64
489 -181 684 -373 198 -196 324 -428 388 -714 33 -150 33 -408 0 -558 -63
-283 -183 -506 -379 -705 -196 -198 -428 -324 -714 -388 -150 -33 -408 -33
-558 0 -277 62 -487 173 -684 362 -216 206 -342 433 -409 731 -19 87 -23 133
-23 279 0 196 13 274 71 450 71 212 182 387 353 553 199 193 418 310 687 366
138 29 150 30 324 26 120 -3 179 -10 260 -29z"/>
</g>
</svg>
